<svg width="32" height="24" viewBox="0 0 32 24" fill="none" xmlns="http://www.w3.org/2000/svg">
<g filter="url(#filter0_dd)">
<rect x="5" y="3.75" width="16.9508" height="16.5" rx="8.25" fill="#50E3C2"/>
<path d="M19.4694 10.5357C19.4694 8.61877 16.7848 7.06488 13.4742 7.06488C10.1635 7.06488 7.48047 8.61877 7.48047 10.5357V14.3625C7.48016 14.4959 7.49332 14.6289 7.5197 14.7589C7.85861 16.4882 10.3957 17.8386 13.4742 17.8386C16.5526 17.8386 19.0913 16.4934 19.4365 14.7642C19.4621 14.634 19.4752 14.5011 19.4757 14.3678V10.5375L19.4694 10.5357Z" fill="#FFD087"/>
<path d="M13.4748 18C10.3556 18 7.73213 16.6215 7.37439 14.794C7.34627 14.6523 7.33207 14.5077 7.33203 14.3626V10.5357C7.33203 8.52934 10.0872 6.89828 13.4748 6.89828C16.8623 6.89828 19.6191 8.52934 19.6191 10.5357V14.3626C19.6191 14.5077 19.6049 14.6523 19.5767 14.794C19.219 16.6215 16.5956 18 13.4748 18ZM13.4748 7.23151C10.252 7.23151 7.63015 8.71349 7.63015 10.5357V14.3626C7.6306 14.4834 7.64216 14.6039 7.66467 14.7221C7.99416 16.4005 10.4889 17.665 13.4701 17.665C16.4512 17.665 18.9523 16.4005 19.2755 14.7221C19.304 14.6047 19.3209 14.4841 19.3257 14.3626V10.5357C19.3257 8.71876 16.6976 7.23151 13.4748 7.23151Z" fill="#7B413B"/>
<path d="M19.4695 10.5357C19.4695 11.2817 19.4731 12.0265 19.4804 12.7701C19.4804 13.3857 19.5652 14.1153 18.9799 14.4713C18.9516 14.4884 18.9208 14.4997 18.8889 14.5046C18.3915 14.559 18.3256 13.5523 17.7263 14.0855C17.3952 14.3801 17.2932 14.901 17.061 15.2763C16.8518 15.6407 16.5464 15.9233 16.187 16.0848C15.3492 16.4216 14.8518 15.6499 14.1473 15.343C13.9339 15.2402 13.6949 15.2253 13.4726 15.3009C13.1949 15.4131 13.0019 15.699 12.7681 15.8937C12.1593 16.397 11.3089 16.1936 10.8116 15.6043C10.5652 15.3114 10.3142 14.9817 9.96428 14.887C9.50769 14.7642 9.05424 15.0378 8.59765 14.8729C8.13998 14.6741 7.77153 14.2806 7.57307 13.7785C7.53699 13.6926 7.50247 13.6032 7.47266 13.519V10.5375C7.47266 8.62054 10.1557 7.06665 13.4664 7.06665C16.777 7.06665 19.4695 8.61879 19.4695 10.5357Z" fill="white"/>
<path d="M19.3692 10.5357C19.3692 11.4126 19.3865 12.3053 19.388 13.1893C19.388 13.5014 19.3755 13.8452 19.206 14.1083C19.126 14.2363 18.9722 14.4082 18.8216 14.3941C18.7221 14.3705 18.6332 14.3084 18.5706 14.2187C18.4691 14.0696 18.3422 13.9444 18.1971 13.8504C18.1075 13.8184 18.0118 13.8141 17.9201 13.8378C17.8284 13.8616 17.7441 13.9126 17.6762 13.9855C17.4299 14.1995 17.3012 14.5116 17.1679 14.8256C17.0269 15.1774 16.8153 15.4882 16.5497 15.7341C16.4165 15.8613 16.2599 15.9542 16.0909 16.0061C15.9219 16.0579 15.7448 16.0674 15.5722 16.034C15.2854 15.9398 15.0157 15.7902 14.7751 15.592C14.2479 15.2219 13.6611 14.9308 13.1151 15.4289C12.8373 15.6814 12.6161 15.955 12.249 16.0445C11.9214 16.1122 11.5829 16.0502 11.2918 15.8691C10.9937 15.6937 10.8039 15.3903 10.5544 15.1413C10.3266 14.8929 10.0222 14.7516 9.70399 14.7467C9.30859 14.7467 8.91947 14.908 8.53977 14.7274C8.22149 14.562 7.95677 14.2906 7.78193 13.9504C7.67503 13.798 7.60675 13.6163 7.58423 13.4243V12.9998C7.58423 12.2001 7.58423 11.4004 7.58423 10.6006C7.58423 9.65354 8.1836 8.94149 8.86142 8.45568C9.95974 7.66646 11.3075 7.32446 12.5941 7.21397C14.0426 7.06914 15.5021 7.26694 16.8776 7.79448C17.7955 8.16454 18.8828 8.79943 19.261 9.87978C19.3344 10.0888 19.3727 10.3112 19.3739 10.5357C19.377 10.5628 19.3888 10.5878 19.4071 10.6059C19.4255 10.624 19.4491 10.634 19.4736 10.634C19.498 10.634 19.5216 10.624 19.54 10.6059C19.5583 10.5878 19.5701 10.5628 19.5732 10.5357C19.5622 9.42379 18.7526 8.60651 17.9461 8.09439C16.7223 7.31569 15.2756 7.01754 13.8886 6.96493C12.4357 6.90705 10.931 7.12628 9.58945 7.77344C8.69981 8.20488 7.68936 8.92921 7.43517 10.0534C7.38524 10.338 7.36732 10.6285 7.38183 10.918V12.3562C7.38183 12.7262 7.37398 13.0981 7.38183 13.4681C7.40692 13.6641 7.47363 13.8505 7.57639 14.0118C7.73812 14.3332 7.9662 14.6068 8.24165 14.8098C8.55572 15.0155 8.92582 15.0872 9.28349 15.0115C9.49044 14.9677 9.70232 14.9612 9.9111 14.9922C10.1174 15.0501 10.305 15.1716 10.4524 15.3429C10.6925 15.5973 10.8886 15.8796 11.1852 16.0585C11.4587 16.2273 11.7691 16.3069 12.0811 16.2883C12.3773 16.2676 12.6607 16.1451 12.8923 15.9375C13.2406 15.6271 13.4979 15.2588 13.9906 15.4114C14.6025 15.5955 15.0371 16.2286 15.6898 16.2883C16.3426 16.3479 16.9451 15.7621 17.2432 15.1518C17.4095 14.801 17.5193 14.3906 17.8127 14.1521C18.0371 13.9767 18.172 14.0819 18.3352 14.2801C18.4431 14.4493 18.6018 14.5695 18.7824 14.6186C19.0381 14.6572 19.2735 14.4082 19.399 14.1819C19.5281 13.9129 19.5904 13.6101 19.5795 13.305C19.5889 12.8858 19.5795 12.4632 19.5685 12.044C19.5685 11.5424 19.5685 11.0408 19.5685 10.5392C19.5658 10.512 19.5544 10.4868 19.5363 10.4684C19.5182 10.45 19.4947 10.4396 19.4702 10.4391C19.4458 10.4387 19.422 10.4483 19.4034 10.4661C19.3848 10.4838 19.3726 10.5086 19.3692 10.5357Z" fill="#7B413B"/>
<path d="M18.6977 8.83448C18.6977 8.07156 18.409 6.4861 17.4864 6.24408C16.4681 5.97574 15.6412 6.75444 15.2505 7.22096C14.0722 7.01285 12.8719 7.01285 11.6935 7.22096C11.3028 6.75444 10.4744 5.97574 9.45609 6.24408C8.53507 6.4861 8.23852 8.07156 8.24636 8.83448C7.75683 9.33607 7.47754 9.91659 7.47754 10.5357C7.47754 12.4526 10.1606 14.0048 13.4712 14.0048C16.7819 14.0048 19.4665 12.4526 19.4665 10.5357C19.4696 9.91659 19.1904 9.33607 18.6977 8.83448Z" fill="white"/>
<path d="M13.4747 14.1942C10.0762 14.1942 7.31152 12.5526 7.31152 10.5357C7.31152 9.90785 7.57826 9.29226 8.08035 8.75208C8.09447 8.05055 8.35179 6.34232 9.42187 6.05996C10.4653 5.78636 11.3126 6.50894 11.7582 7.0193C12.8968 6.82988 14.0542 6.82988 15.1928 7.0193C15.6384 6.50894 16.4841 5.79162 17.529 6.05996C18.5991 6.34232 18.8564 8.05757 18.869 8.75208C19.3727 9.29226 19.6394 9.90785 19.6394 10.5357C19.6394 12.5526 16.8732 14.1942 13.4747 14.1942ZM9.87846 6.37915C9.75064 6.37952 9.62327 6.396 9.49875 6.42826C8.67344 6.64574 8.41141 8.16981 8.41926 8.83276V8.91694L8.36434 8.97306C7.89363 9.45361 7.65043 9.99379 7.65043 10.5357C7.65043 12.3439 10.2629 13.8171 13.4747 13.8171C16.6865 13.8171 19.3005 12.3439 19.3005 10.5357C19.3005 9.99379 19.0541 9.45361 18.5866 8.97306L18.5301 8.91694V8.83276C18.5301 8.16981 18.2759 6.64574 17.4506 6.42826C16.5202 6.18448 15.7513 6.90004 15.3763 7.35077L15.3151 7.42268L15.2257 7.4069C14.0648 7.20522 12.883 7.20522 11.7221 7.4069L11.6326 7.42268L11.5714 7.35077C11.2498 6.96493 10.6347 6.37915 9.87846 6.37915Z" fill="#7B413B"/>
<path d="M16.4122 10.8093C16.7094 10.8093 16.9504 10.54 16.9504 10.2077C16.9504 9.8755 16.7094 9.60617 16.4122 9.60617C16.115 9.60617 15.874 9.8755 15.874 10.2077C15.874 10.54 16.115 10.8093 16.4122 10.8093Z" fill="#7D3D42"/>
<path d="M16.4118 10.8234C16.3035 10.8234 16.1977 10.7875 16.1076 10.7202C16.0176 10.6529 15.9474 10.5573 15.9059 10.4455C15.8645 10.3337 15.8537 10.2106 15.8748 10.0919C15.8959 9.97312 15.9481 9.86406 16.0246 9.77846C16.1012 9.69286 16.1988 9.63456 16.305 9.61094C16.4112 9.58733 16.5213 9.59945 16.6214 9.64577C16.7215 9.6921 16.807 9.77055 16.8672 9.87121C16.9273 9.97187 16.9594 10.0902 16.9594 10.2113C16.9594 10.3736 16.9017 10.5293 16.7991 10.6441C16.6964 10.7589 16.5571 10.8234 16.4118 10.8234ZM16.4118 9.62023C16.3072 9.61988 16.2048 9.65425 16.1177 9.71898C16.0305 9.78372 15.9625 9.8759 15.9222 9.98387C15.882 10.0918 15.8713 10.2107 15.8915 10.3255C15.9117 10.4403 15.9619 10.5457 16.0358 10.6286C16.1097 10.7114 16.2039 10.7679 16.3065 10.7908C16.4092 10.8138 16.5156 10.8022 16.6123 10.7575C16.709 10.7128 16.7916 10.637 16.8498 10.5398C16.908 10.4426 16.939 10.3282 16.939 10.2113C16.9395 10.1335 16.9261 10.0564 16.8998 9.98441C16.8736 9.91242 16.8348 9.84692 16.7858 9.79169C16.7369 9.73646 16.6786 9.69257 16.6144 9.66255C16.5503 9.63252 16.4814 9.61695 16.4118 9.61672V9.62023Z" fill="#D53D2C"/>
<path d="M10.4825 10.8093C10.7797 10.8093 11.0207 10.54 11.0207 10.2077C11.0207 9.8755 10.7797 9.60617 10.4825 9.60617C10.1853 9.60617 9.94434 9.8755 9.94434 10.2077C9.94434 10.54 10.1853 10.8093 10.4825 10.8093Z" fill="#7D3D42"/>
<path d="M10.4825 10.8233C10.3743 10.823 10.2686 10.7868 10.1787 10.7193C10.0889 10.6519 10.019 10.5562 9.97776 10.4443C9.93655 10.3324 9.92593 10.2094 9.94724 10.0908C9.96854 9.97216 10.0208 9.86327 10.0975 9.77784C10.1741 9.69241 10.2717 9.63429 10.3779 9.61082C10.484 9.58734 10.5941 9.59956 10.694 9.64594C10.794 9.69232 10.8794 9.77077 10.9395 9.87139C10.9996 9.97201 11.0317 10.0903 11.0317 10.2113C11.0313 10.3738 10.9732 10.5294 10.8703 10.6442C10.7674 10.7589 10.6279 10.8234 10.4825 10.8233ZM10.4825 9.62023C10.3778 9.61988 10.2753 9.65434 10.188 9.71923C10.1008 9.78412 10.0328 9.87651 9.99262 9.98468C9.95245 10.0929 9.94194 10.2119 9.96242 10.3268C9.9829 10.4416 10.0335 10.5471 10.1077 10.6298C10.1819 10.7125 10.2764 10.7687 10.3792 10.7912C10.482 10.8138 10.5885 10.8017 10.6851 10.7565C10.7818 10.7112 10.8643 10.6349 10.922 10.5373C10.9798 10.4396 11.0104 10.3249 11.0097 10.2078C11.0097 10.0513 10.9542 9.90124 10.8554 9.79045C10.7566 9.67966 10.6225 9.61718 10.4825 9.61672V9.62023Z" fill="#D53D2C"/>
<path d="M14.6388 11.0864C14.6153 11.08 14.5905 11.0841 14.5697 11.0979C14.5488 11.1117 14.5337 11.134 14.5274 11.1601C14.4646 11.4284 14.1367 11.4828 13.9249 11.4337C13.8212 11.4127 13.7268 11.3534 13.6568 11.2654C13.5868 11.1773 13.5453 11.0655 13.5389 10.9479C13.5389 10.9479 13.5389 10.9374 13.5389 10.9321V10.9128L13.5295 10.8953L13.5201 10.8812L13.5028 10.8672H13.4918H13.4714H13.4604H13.4416H13.4306H13.4102H13.3993L13.382 10.8812V10.8935L13.371 10.9128V10.9321C13.371 10.9321 13.371 10.9409 13.371 10.9479C13.3646 11.0655 13.3231 11.1773 13.2531 11.2654C13.1831 11.3534 13.0887 11.4127 12.985 11.4337C12.7732 11.4828 12.4453 11.4337 12.3825 11.1601C12.3763 11.1338 12.361 11.1114 12.3399 11.0977C12.3189 11.0841 12.2938 11.0803 12.2703 11.0873C12.2468 11.0943 12.2268 11.1114 12.2145 11.1349C12.2023 11.1585 12.199 11.1864 12.2052 11.2127C12.2837 11.5459 12.5881 11.6529 12.8422 11.6529C12.9027 11.6528 12.9631 11.6469 13.0227 11.6354C13.1139 11.6141 13.2001 11.572 13.276 11.5116C13.3519 11.4512 13.4157 11.3739 13.4636 11.2846C13.5111 11.3743 13.5748 11.4518 13.6508 11.5123C13.7267 11.5727 13.8131 11.6146 13.9045 11.6354C13.9635 11.647 14.0234 11.6529 14.0833 11.6529C14.3375 11.6529 14.6419 11.5459 14.7204 11.2127C14.7233 11.1983 14.7235 11.1834 14.7209 11.169C14.7183 11.1545 14.7129 11.1408 14.7052 11.1289C14.6975 11.1169 14.6876 11.107 14.6761 11.0996C14.6646 11.0923 14.6519 11.0878 14.6388 11.0864Z" fill="#7D3D42"/>
<path d="M18.2347 10.6216C18.2131 10.6217 18.1922 10.6133 18.1756 10.5979C18.159 10.5825 18.1477 10.5611 18.1437 10.5375C18.14 10.5106 18.1458 10.4831 18.1598 10.4609C18.1739 10.4386 18.1951 10.4233 18.219 10.4182L18.8544 10.2972C18.8663 10.2949 18.8784 10.2953 18.8901 10.2983C18.9019 10.3014 18.9129 10.3069 18.9227 10.3148C18.9325 10.3226 18.9408 10.3325 18.9471 10.344C18.9534 10.3554 18.9577 10.3681 18.9596 10.3814C18.9618 10.3945 18.9617 10.408 18.9592 10.4211C18.9566 10.4342 18.9518 10.4466 18.9449 10.4576C18.9381 10.4685 18.9293 10.4778 18.9191 10.4849C18.909 10.492 18.8976 10.4968 18.8858 10.4989L18.2441 10.6269L18.2347 10.6216Z" fill="#7D3D42"/>
<path d="M18.8549 11.367C18.8455 11.3687 18.836 11.3687 18.8266 11.367L18.2069 11.139C18.1954 11.1349 18.1848 11.1283 18.1757 11.1195C18.1665 11.1108 18.159 11.1002 18.1536 11.0882C18.1481 11.0762 18.1448 11.0632 18.1438 11.0498C18.1429 11.0364 18.1443 11.0229 18.148 11.0101C18.1517 10.9973 18.1577 10.9855 18.1655 10.9753C18.1733 10.9651 18.1828 10.9566 18.1935 10.9505C18.2042 10.9444 18.2159 10.9407 18.2279 10.9397C18.2399 10.9386 18.2519 10.9402 18.2633 10.9444L18.891 11.1671C18.9147 11.1724 18.9355 11.1881 18.9489 11.2106C18.9623 11.2332 18.9671 11.2607 18.9623 11.2872C18.9576 11.3137 18.9435 11.337 18.9234 11.352C18.9032 11.367 18.8786 11.3724 18.8549 11.367Z" fill="#7D3D42"/>
<path d="M8.68249 10.6217H8.66523L8.0282 10.4919C8.00451 10.4872 7.98345 10.4722 7.96963 10.4501C7.95581 10.4281 7.95035 10.4009 7.95446 10.3744C7.95905 10.3476 7.97273 10.3239 7.99262 10.3082C8.01252 10.2925 8.03708 10.2861 8.06115 10.2902L8.70289 10.4182C8.72702 10.4205 8.74934 10.4335 8.76494 10.4542C8.78053 10.4749 8.78813 10.5017 8.78605 10.5287C8.78396 10.5557 8.77238 10.5806 8.75384 10.5981C8.73531 10.6155 8.71133 10.624 8.6872 10.6217H8.68249Z" fill="#7D3D42"/>
<path d="M8.06128 11.367C8.04212 11.3669 8.02346 11.3601 8.00797 11.3475C7.99247 11.3349 7.98093 11.3172 7.97498 11.2968C7.96904 11.2726 7.97117 11.2468 7.98098 11.2242C7.9908 11.2016 8.00763 11.1838 8.02833 11.1741L8.65594 10.9513C8.67883 10.943 8.70373 10.9452 8.7252 10.9573C8.74666 10.9695 8.76295 10.9907 8.77048 11.0162C8.77797 11.042 8.77608 11.0701 8.76522 11.0944C8.75436 11.1187 8.7354 11.1372 8.71243 11.146L8.08482 11.3687C8.07694 11.3693 8.06902 11.3687 8.06128 11.367Z" fill="#7D3D42"/>
<path d="M17.0052 11.5231C17.3085 11.5231 17.5544 11.3771 17.5544 11.1969C17.5544 11.0167 17.3085 10.8707 17.0052 10.8707C16.7019 10.8707 16.4561 11.0167 16.4561 11.1969C16.4561 11.3771 16.7019 11.5231 17.0052 11.5231Z" fill="#F397B7"/>
<path d="M9.91928 11.5231C10.2226 11.5231 10.4684 11.3771 10.4684 11.1969C10.4684 11.0167 10.2226 10.8707 9.91928 10.8707C9.61598 10.8707 9.37012 11.0167 9.37012 11.1969C9.37012 11.3771 9.61598 11.5231 9.91928 11.5231Z" fill="#F397B7"/>
</g>
<defs>
<filter id="filter0_dd" x="0" y="-1.25" width="36.9508" height="36.5" filterUnits="userSpaceOnUse" color-interpolation-filters="sRGB">
<feFlood flood-opacity="0" result="BackgroundImageFix"/>
<feColorMatrix in="SourceAlpha" type="matrix" values="0 0 0 0 0 0 0 0 0 0 0 0 0 0 0 0 0 0 127 0"/>
<feOffset dx="-2" dy="-2"/>
<feGaussianBlur stdDeviation="1.5"/>
<feColorMatrix type="matrix" values="0 0 0 0 0.391667 0 0 0 0 0.391667 0 0 0 0 0.391667 0 0 0 1 0"/>
<feBlend mode="normal" in2="BackgroundImageFix" result="effect1_dropShadow"/>
<feColorMatrix in="SourceAlpha" type="matrix" values="0 0 0 0 0 0 0 0 0 0 0 0 0 0 0 0 0 0 127 0"/>
<feOffset dx="5" dy="5"/>
<feGaussianBlur stdDeviation="5"/>
<feColorMatrix type="matrix" values="0 0 0 0 0 0 0 0 0 0 0 0 0 0 0 0 0 0 0.5 0"/>
<feBlend mode="normal" in2="effect1_dropShadow" result="effect2_dropShadow"/>
<feBlend mode="normal" in="SourceGraphic" in2="effect2_dropShadow" result="shape"/>
</filter>
</defs>
</svg>
