<svg width="16" height="16" viewBox="0 0 16 16" fill="none" xmlns="http://www.w3.org/2000/svg">
<path d="M13.3337 2.00002H4.00033C3.26699 2.00002 2.66699 2.60002 2.66699 3.33335V8.66668C2.66699 10.14 3.86033 11.3333 5.33366 11.3333H9.33366C10.807 11.3333 12.0003 10.14 12.0003 8.66668V6.66668H13.3337C14.0737 6.66668 14.667 6.06668 14.667 5.33335V3.33335C14.667 2.60002 14.067 2.00002 13.3337 2.00002ZM13.3337 5.33335H12.0003V3.33335H13.3337V5.33335ZM3.33366 12.6667H12.667C13.0337 12.6667 13.3337 12.9667 13.3337 13.3333C13.3337 13.7 13.0337 14 12.667 14H3.33366C2.96699 14 2.66699 13.7 2.66699 13.3333C2.66699 12.9667 2.96699 12.6667 3.33366 12.6667Z" fill="#6EA3AA"/>
</svg>
